<?xml version="1.0" encoding="UTF-8"?>
<svg width="100pt" height="100pt" version="1.1" viewBox="0 0 100 100" xmlns="http://www.w3.org/2000/svg">
 <g fill-rule="evenodd">
  <path d="m89.523 15.402h-10.227c-0.86328 0-1.5625-0.69922-1.5625-1.5625 0-0.86328 0.69922-1.5625 1.5625-1.5625h11.789c0.86328 0 1.5625 0.69922 1.5625 1.5625v60.387c0 0.86328-0.69922 1.5625-1.5625 1.5625h-51.172c-0.86328 0-1.5625-0.69922-1.5625-1.5625 0-0.86328 0.69922-1.5625 1.5625-1.5625h49.609z"/>
  <path d="m9.375 15.402v32.266c0 0.85938-0.69922 1.5625-1.5625 1.5625s-1.5625-0.70312-1.5625-1.5625v-33.828c0-0.86328 0.69922-1.5625 1.5625-1.5625h65.406c0.86328 0 1.5625 0.69922 1.5625 1.5625 0 0.86328-0.69922 1.5625-1.5625 1.5625z"/>
  <path d="m12.789 31.285v12.434c0 0.85938 0.69922 1.5625 1.5625 1.5625 0.86328 0 1.5625-0.70312 1.5625-1.5625v-12.434c0-0.86328-0.69922-1.5625-1.5625-1.5625-0.86328 0-1.5625 0.69922-1.5625 1.5625z"/>
  <path d="m82.98 65.773v-3.2344c0-0.86328 0.70312-1.5625 1.5664-1.5625 0.85938 0 1.5586 0.69922 1.5586 1.5625v4.7969c0 0.86328-0.69922 1.5625-1.5586 1.5625h-43.887c-0.85938 0-1.5625-0.70313-1.5625-1.5625 0-0.86328 0.70312-1.5625 1.5625-1.5625z"/>
  <path d="m15.914 22.293v3.0352c0 0.86328-0.69922 1.5625-1.5625 1.5625-0.86328 0-1.5625-0.69922-1.5625-1.5625v-4.5977c0-0.86328 0.69922-1.5625 1.5625-1.5625h70.195c0.85938 0 1.5586 0.69922 1.5586 1.5625v35.766c0 0.86328-0.69922 1.5625-1.5586 1.5625-0.86328 0-1.5664-0.69922-1.5664-1.5625v-34.203z"/>
  <path d="m18.906 61.652c-0.027344-0.17188-0.039062-0.34375-0.039062-0.52344 0-1.9375 1.5742-3.5078 3.5117-3.5078s3.5078 1.5703 3.5078 3.5078-1.5703 3.5117-3.5078 3.5117c-0.19531 0-0.38672-0.015625-0.57422-0.046875-0.84766-0.13672-1.6523 0.44141-1.793 1.2891-0.13672 0.85156 0.4375 1.6562 1.2891 1.7969 0.35156 0.054687 0.71094 0.085937 1.0781 0.085937 3.6602 0 6.6328-2.9727 6.6328-6.6367 0-3.6602-2.9727-6.6328-6.6328-6.6328-3.6641 0-6.6367 2.9727-6.6367 6.6328 0 0.33594 0.023437 0.66406 0.074218 0.98438 0.125 0.85156 0.92188 1.4414 1.7734 1.3125 0.85547-0.125 1.4414-0.92188 1.3164-1.7734z"/>
  <path d="m10.016 73.441c-1.4102-2.1094-1.9375-4.6836-1.4688-7.0469-2.5-2.332-3.6055-6.2266-2.4336-9.8867 1.1758-3.6641 4.3281-6.1562 7.707-6.5625 1.4258-3.1367 4.75-5.4062 8.5586-5.4062 3.4453 0 6.5039 1.8594 8.1016 4.5391 0.44141 0.73828 0.19922 1.6992-0.53906 2.1406-0.74219 0.44141-1.7031 0.19922-2.1445-0.54297-1.0664-1.7891-3.1172-3.0117-5.418-3.0117-2.7969 0-5.2305 1.8008-5.9609 4.2344-0.19922 0.67187-0.82422 1.125-1.5273 1.1133-2.5078-0.050781-4.9375 1.7539-5.8008 4.4492-0.86719 2.707 0.0625 5.6289 2.125 7.0898 0.56641 0.39844 0.80078 1.125 0.57812 1.7812-0.82422 2.4102 0.10938 5.3281 2.3789 7.0039 2.2578 1.6602 5.2617 1.6641 7.2539 0.13281 0.5625-0.42969 1.3398-0.42969 1.9023 0 1.9961 1.5312 5 1.5273 7.2539-0.13281 2.2734-1.6758 3.207-4.5938 2.3828-7.0039-0.22656-0.65625 0.007812-1.3828 0.57422-1.7812 2.0664-1.4609 2.9922-4.3828 2.125-7.0898-0.39453-1.2305-1.1172-2.2734-2.0234-3.0391-0.66016-0.55859-0.74219-1.543-0.1875-2.2031 0.55859-0.65625 1.543-0.74219 2.2031-0.18359 1.3359 1.1289 2.4023 2.6602 2.9844 4.4727 1.1719 3.6602 0.066406 7.5547-2.4336 9.8867 0.47266 2.3633-0.058593 4.9375-1.4688 7.0469 0.011719 0.03125 0.87891 3.082 0.87891 3.082 0.23437 0.82812-0.24609 1.6914-1.0742 1.9297-0.83203 0.23438-1.6953-0.24609-1.9297-1.0781l-0.39062-1.3711c-1.457 1.0117-3.1016 1.5625-4.7422 1.6836l1.9648 6.9102h5.2188l-0.26562-0.93359c-0.23438-0.82812 0.24609-1.6914 1.0781-1.9297 0.82813-0.23438 1.6953 0.24609 1.9297 1.0742l0.83203 2.9258c0.13281 0.46875 0.039063 0.97656-0.25781 1.3672-0.29297 0.39063-0.75781 0.62109-1.2461 0.62109h-8.4688c-0.69922 0-1.3125-0.46094-1.5039-1.1328l-2.6328-9.2656c-0.60938-0.18359-1.1992-0.43359-1.75-0.74609-0.55469 0.3125-1.1406 0.5625-1.7539 0.74609l-2.6328 9.2656c-0.19141 0.67188-0.80469 1.1328-1.5039 1.1328h-8.4688c-0.48828 0-0.94922-0.23047-1.2461-0.62109-0.29297-0.39062-0.39063-0.89844-0.25391-1.3672 0 0 3.4883-12.262 3.4961-12.293zm2.5195 2.5625-2.4453 8.5938h5.2188l1.9648-6.9102c-1.6367-0.12109-3.2852-0.67188-4.7383-1.6836z"/>
  <path d="m37.84 42.773h24.852c0.86328 0 1.5625-0.69922 1.5625-1.5625 0-0.86328-0.69922-1.5625-1.5625-1.5625h-24.852c-0.86328 0-1.5625 0.69922-1.5625 1.5625 0 0.86328 0.69922 1.5625 1.5625 1.5625z"/>
  <path d="m39.391 50.891h35.082c0.86328 0 1.5625-0.70312 1.5625-1.5625 0-0.86328-0.69922-1.5625-1.5625-1.5625h-35.082c-0.86328 0-1.5625 0.69922-1.5625 1.5625 0 0.85938 0.69922 1.5625 1.5625 1.5625z"/>
  <path d="m44.363 59.266h30.285c0.85937 0 1.5625-0.69922 1.5625-1.5625 0-0.85938-0.70313-1.5625-1.5625-1.5625h-30.285c-0.86328 0-1.5625 0.70312-1.5625 1.5625 0 0.86328 0.69922 1.5625 1.5625 1.5625z"/>
  <path d="m34.164 31.27h1.418c0.86328 0 1.5625 0.69922 1.5625 1.5625s-0.69922 1.5625-1.5625 1.5625h-2.9805c-0.86328 0-1.5625-0.69922-1.5625-1.5625v-6.0234c0-0.86328 0.69922-1.5625 1.5625-1.5625h35.086c0.86328 0 1.5625 0.69922 1.5625 1.5625v6.0234c0 0.86328-0.69922 1.5625-1.5625 1.5625h-26.027c-0.86328 0-1.5625-0.69922-1.5625-1.5625s0.69922-1.5625 1.5625-1.5625h24.465v-2.8984h-31.961z"/>
 </g>
</svg>
